<?xml version="1.0" encoding="UTF-8" standalone="no"?>
<svg
   xmlns:dc="http://purl.org/dc/elements/1.1/"
   xmlns:cc="http://creativecommons.org/ns#"
   xmlns:rdf="http://www.w3.org/1999/02/22-rdf-syntax-ns#"
   xmlns:svg="http://www.w3.org/2000/svg"
   xmlns="http://www.w3.org/2000/svg"
   viewBox="0 0 199.91333 240.25067"
   height="240.25067"
   width="199.91333"
   xml:space="preserve"
   id="svg2"
   version="1.1"><metadata
     id="metadata8"><rdf:RDF><cc:Work
         rdf:about=""><dc:format>image/svg+xml</dc:format><dc:type
           rdf:resource="http://purl.org/dc/dcmitype/StillImage" /></cc:Work></rdf:RDF></metadata><defs
     id="defs6"><clipPath
       id="clipPath20"
       clipPathUnits="userSpaceOnUse"><path
         id="path18"
         d="M 0,0 H 251 V 266 H 0 Z" /></clipPath></defs><g
     transform="matrix(1.3333333,0,0,-1.3333333,0,240.25067)"
     id="g10"><g
       transform="translate(-48.87,-43.258)"
       id="g12"><g
         id="g14"><g
           clip-path="url(#clipPath20)"
           id="g16"><g
             transform="translate(105,83.687012)"
             id="g22"><path
               id="path24"
               style="fill:#2e4757;fill-opacity:1;fill-rule:nonzero;stroke:none"
               d="m 29.59922,136.23392 c 9.605385,0.76226 18.573117,-4.11481 26.503907,-9.11249 7.930786,-4.99767 14.745147,-11.55434 20.022666,-19.2655 5.277512,-7.71116 8.90625,-16.413227 10.662316,-25.569339 C 88.544182,73.130486 88.390335,63.714539 86.336075,54.619682 84.281815,45.524834 80.370705,36.943985 74.844048,29.406532 69.317398,21.86908 62.292419,15.534904 54.20253,10.7948 46.112644,6.054688 37.129433,3.009186 27.807127,1.846191 18.484823,0.683197 9.021159,1.427383 0,4.032806 l 5.307098,18.08181 c 8.155075,0 13.38217,-2.424965 20.131092,-1.583015 6.748921,0.841957 13.252354,3.046761 19.109066,6.478386 5.856709,3.431618 10.942471,8.017273 14.943512,13.474037 4.001046,5.456772 6.832505,11.668915 8.319695,18.253174 1.48719,6.584259 1.598564,13.40097 0.327255,20.029571 -1.271316,6.628609 -3.898346,12.928513 -7.719028,18.511033 -3.820683,5.582518 -8.753968,10.329258 -14.495499,13.947338 -5.741527,3.61809 -12.169517,6.0308 -18.88739,7.08925 z" /></g><g
             transform="translate(58,202)"
             id="g26"><path
               id="path28"
               style="fill:#2e4757;fill-opacity:1;fill-rule:nonzero;stroke:none"
               d="m 0,9 c 0,4.970562 4.029437,9 9,9 h 68 c 4.970566,0 9,-4.029438 9,-9 V 9 C 86,4.029437 81.970566,0 77,0 H 8.999999 C 4.029437,0 0,4.029437 0,9 Z" /></g><g
             transform="translate(57.606323,44.739624)"
             id="g30"><path
               id="path32"
               style="fill:#2e4757;fill-opacity:1;fill-rule:evenodd;stroke:none"
               d="m 23.8715,30.79714 c -2.84944,-3.277815 -8.235894,-1.611885 -8.739342,2.702913 L 11.971497,60.588501 H 4.999121 c -2.990417,0 -5.311396,-2.608009 -4.964772,-5.578747 L 5.755019,5.980762 C 6.258467,1.665966 11.644922,3.4e-5 14.494362,3.277847 L 57.11578,52.306839 c 2.813347,3.236298 0.513805,8.281662 -3.774559,8.281662 h -3.571777 z" /></g><g
             transform="translate(71,148)"
             id="g34"><path
               id="path36"
               style="fill:#f1a443;fill-opacity:1;fill-rule:nonzero;stroke:none"
               d="M 18,9 C 18,4.029437 13.970563,0 9,0 4.029437,0 0,4.029437 0,9 c 0,4.970563 4.029437,9 9,9 4.970563,0 9,-4.029437 9,-9 z" /></g><g
             transform="translate(98,148)"
             id="g38"><path
               id="path40"
               style="fill:#f1a443;fill-opacity:1;fill-rule:nonzero;stroke:none"
               d="M 18,9 C 18,4.029437 13.970563,0 9,0 4.029437,0 0,4.029437 0,9 c 0,4.970563 4.029437,9 9,9 4.970563,0 9,-4.029437 9,-9 z" /></g><g
             transform="translate(126,148)"
             id="g42"><path
               id="path44"
               style="fill:#f1a443;fill-opacity:1;fill-rule:nonzero;stroke:none"
               d="M 18,9 C 18,4.029437 13.970563,0 9,0 4.029437,0 0,4.029437 0,9 c 0,4.970563 4.029437,9 9,9 4.970563,0 9,-4.029437 9,-9 z" /></g></g></g></g></g></svg>