<svg xmlns="http://www.w3.org/2000/svg" xmlns:xlink="http://www.w3.org/1999/xlink" version="1.1" width="149.935pt" height="180.188pt" viewBox="0 0 149.935 180.188">
<defs>
<clipPath id="clip_0">
<path transform="matrix(1,0,0,-1,-48.87,223.446)" d="M0 0H251V266H0Z"/>
</clipPath>
</defs>
<g clip-path="url(#clip_0)">
<path transform="matrix(1,0,0,-1,56.13,139.75899)" d="M29.59922 136.23392C39.204607 136.99619 48.172338 132.11911 56.103128 127.12143 64.03391 122.12376 70.848278 115.567089 76.12579 107.855937 81.403308 100.144779 85.03204 91.4427 86.78811 82.28659 88.54418 73.130489 88.390338 63.71454 86.336078 54.619684 84.281818 45.524835 80.370708 36.943986 74.84405 29.406533 69.3174 21.86908 62.29242 15.534904 54.20253 10.7948 46.112646 6.054688 37.129434 3.009186 27.807127 1.846191 18.484824 .683197 9.021159 1.427383 0 4.032806L5.307098 22.114617C13.462173 22.114617 18.689269 19.689652 25.43819 20.5316 32.18711 21.373558 38.690546 23.578362 44.547258 27.009987 50.403966 30.441605 55.489728 35.02726 59.49077 40.484025 63.491815 45.940797 66.32327 52.15294 67.81046 58.737199 69.29765 65.32146 69.40903 72.13817 68.13772 78.76677 66.8664 85.39538 64.23937 91.69528 60.41869 97.2778 56.598009 102.86032 51.664724 107.607059 45.92319 111.22514 40.181665 114.84323 33.753675 117.255939 27.0358 118.31439L29.59922 136.23392Z" fill="#2e4757"/>
<path transform="matrix(1,0,0,-1,9.130001,21.446)" d="M0 9C0 13.970562 4.029437 18 9 18H77C81.970569 18 86 13.970562 86 9 86 4.029437 81.970569 0 77 0H8.999999C4.029437 0 0 4.029437 0 9Z" fill="#2e4757"/>
<path transform="matrix(1,0,0,-1,8.736324,178.70638)" d="M23.8715 30.79714C21.02206 27.519326 15.635606 29.185256 15.132158 33.500055L11.971497 60.5885H4.999121C2.008704 60.5885-.312275 57.98049 .034349 55.009756L5.755019 5.980762C6.258467 1.665966 11.644922 .000034 14.494362 3.277847L57.11578 52.30684C59.929128 55.543138 57.629587 60.5885 53.34122 60.5885H49.769445L23.8715 30.79714Z" fill="#2e4757" fill-rule="evenodd"/>
<path transform="matrix(1,0,0,-1,22.130002,75.446)" d="M18 9C18 4.029437 13.970563 0 9 0 4.029437 0 0 4.029437 0 9 0 13.970563 4.029437 18 9 18 13.970563 18 18 13.970563 18 9Z" fill="#f1a443"/>
<path transform="matrix(1,0,0,-1,49.13,75.446)" d="M18 9C18 4.029437 13.970563 0 9 0 4.029437 0 0 4.029437 0 9 0 13.970563 4.029437 18 9 18 13.970563 18 18 13.970563 18 9Z" fill="#f1a443"/>
<path transform="matrix(1,0,0,-1,77.130008,75.446)" d="M18 9C18 4.029437 13.970563 0 9 0 4.029437 0 0 4.029437 0 9 0 13.970563 4.029437 18 9 18 13.970563 18 18 13.970563 18 9Z" fill="#f1a443"/>
</g>
</svg>
